<?xml version="1.0" encoding="UTF-8"?>
<svg id="a" xmlns="http://www.w3.org/2000/svg" viewBox="0 0 160 20">
  <defs>
    <style>
      .b {
        fill: #fff;
      }
    </style>
  </defs>
  <path class="b" d="M16.19,12.45h4.83c.64,0,.94,.27,.94,.93,0,.61-.37,.86-.94,.86H9.5c-.64,0-.94-.27-.94-.93s.37-.86,.94-.86h4.83V7.82h-3.22c-.64,0-.94-.27-.94-.93s.37-.86,.94-.86h8.29c.64,0,.94,.27,.94,.93s-.37,.86-.94,.86h-3.22v4.62Z"/>
  <path class="b" d="M32.48,6.91c.34-.24,.7-.46,1.02-.46,.53,0,.91,.46,.91,.98s-.51,.86-1.3,1.34c-1.6,.98-3.3,1.62-5.07,2.08v2.06c0,.51,.02,.8,.34,.98,.27,.14,1.04,.16,1.58,.16h.45c1.18,0,2.34-.08,3.5-.26,.26-.03,.51-.1,.77-.1,.58,0,.86,.32,.86,.9,0,.85-.5,.93-1.31,1.02-1.39,.16-2.78,.21-4.18,.21-2.45,0-3.84-.06-3.84-2.96V5.22c0-.61,.35-.85,.93-.85s.9,.27,.9,.85v3.81c1.58-.46,3.09-1.15,4.43-2.11Zm2-2.86c.29,0,.64,.42,1.01,.88,.29,.35,.66,.85,.66,1.07,0,.3-.29,.54-.58,.54-.18,0-.37-.21-.5-.38-.29-.38-.54-.72-.86-1.07-.14-.14-.29-.3-.29-.51,0-.29,.27-.53,.56-.53Zm1.44-1.02c.11,0,.26,.08,.38,.21,.24,.22,.46,.48,.61,.66,.29,.35,.67,.91,.67,1.09,0,.3-.29,.54-.58,.54-.22,0-.35-.18-.48-.35-.29-.38-.56-.74-.88-1.09-.24-.26-.3-.37-.3-.53,0-.3,.29-.53,.58-.53Z"/>
  <path class="b" d="M44.1,6.1c.58,.38,1.06,.69,1.06,1.23,0,.51-.4,1.04-.93,1.04-.24,0-.51-.16-.96-.51-.58-.46-1.12-.75-1.68-1.1-.42-.26-.58-.38-.58-.75,0-.51,.45-1.01,.98-1.01,.35,0,1.1,.43,2.11,1.1Zm-2.11,7.98c3.7-1.49,6.69-4.08,8.96-7.26,.21-.3,.45-.58,.85-.58,.5,0,.96,.43,.96,.93,0,.3-.38,.9-.66,1.26-1.41,1.89-3.12,3.58-5.02,4.98-.91,.67-4.16,2.66-5.09,2.66-.54,0-.98-.56-.98-1.07s.38-.67,.98-.91Z"/>
  <path class="b" d="M64.58,5.52c.29,0,.56,.03,.82,.16,.38,.19,.59,.58,.59,.98,0,.54-.82,2.27-1.17,2.93-.96,1.81-2.18,3.49-3.68,4.9-1.02,.96-2.18,1.76-3.44,2.38-.3,.16-.66,.34-1.02,.34-.5,0-.93-.42-.93-.93,0-.46,.37-.66,.74-.83,1.57-.75,2.83-1.65,4.02-2.9,1.52-1.6,2.64-3.39,3.47-5.36h-3.46c-.67,.93-1.34,1.81-2.14,2.67-.46,.51-.94,1.01-1.42,1.01s-.96-.4-.96-.88c0-.29,.18-.5,.37-.69,1.65-1.63,2.96-3.28,3.98-5.42,.18-.35,.43-.56,.83-.56,.45,0,1.01,.24,1.01,.75,0,.35-.24,.83-.62,1.46h3.02Zm1.09-1.89c.22,0,.82,.51,1.25,.94,.32,.32,.58,.66,.58,.86,0,.29-.27,.54-.58,.54-.14,0-.26-.1-.46-.32-.4-.43-.72-.72-1.12-1.06-.13-.11-.24-.26-.24-.43,0-.3,.27-.54,.58-.54Zm1.28-1.2c.27,0,1.01,.7,1.26,.96,.29,.29,.56,.67,.56,.85,0,.3-.27,.54-.58,.54-.21,0-.35-.18-.48-.32-.34-.37-.69-.72-1.07-1.04-.19-.16-.26-.26-.26-.45,0-.3,.27-.54,.56-.54Z"/>
  <path class="b" d="M74.08,6.98c0,.4-.24,.94-.53,1.58-.46,1.02-1.01,2-1.65,2.98-.5,.75-1.04,1.44-1.7,2.05-.26,.24-.61,.48-.93,.48-.51,0-1.07-.4-1.07-.96,0-.34,.21-.54,.45-.77,.75-.7,1.38-1.47,1.92-2.3,.66-.99,1.15-2,1.55-3.15,.21-.61,.42-.78,.88-.78,.51,0,1.07,.32,1.07,.88Zm4.8-.13c.61,.67,1.12,1.44,1.63,2.21,.54,.83,1.98,3.14,1.98,3.79,0,.58-.54,.98-1.09,.98s-.74-.34-1.12-1.26c-.69-1.66-1.79-3.23-2.94-4.59-.18-.21-.34-.42-.34-.7,0-.51,.48-.9,.99-.9,.35,0,.62,.21,.88,.48Z"/>
  <path class="b" d="M90.03,4.05c0-.64,.32-.9,.93-.9s.93,.29,.93,.9v1.54h2.54c1.28,0,2.03,.51,2.03,1.87,0,.93-.22,1.86-.53,2.74-.51,1.52-1.38,2.91-2.48,4.08-.9,.94-1.98,1.73-3.17,2.29-.51,.24-.75,.34-1.04,.34-.51,0-.9-.51-.9-.99,0-.45,.38-.66,.74-.8,1.89-.8,3.44-2.08,4.46-3.94,.51-.93,1.06-2.35,1.06-3.42,0-.37-.18-.48-.53-.48h-6.13c-.43,0-.59,.24-.59,.67v2.3c0,.59-.32,.91-.91,.91s-.9-.34-.9-.91v-2.46c0-1.41,.7-2.19,2.14-2.19h2.34v-1.54Z"/>
  <path class="b" d="M110.33,12.85c.58,.59,.98,1.04,.98,1.47,0,.53-.48,1.01-1.02,1.01-.37,0-.62-.32-.85-.59-.93-1.17-1.98-2.24-3.18-3.17-1.14,1.14-2.45,2.1-3.87,2.9-.85,.48-1.63,.91-2.11,.91-.51,0-.91-.48-.91-.98,0-.45,.3-.66,.86-.9,3.17-1.38,5.6-3.6,7.38-6.56h-5.58c-.58,0-.93-.26-.93-.86s.37-.86,.93-.86h6.51c.62,0,1.31,.22,1.31,.96,0,.98-1.73,3.3-2.37,4.08,1.02,.77,1.97,1.65,2.86,2.59Z"/>
  <path class="b" d="M120.62,8.83h5.63c.54,0,.86,.32,.86,.86s-.34,.85-.86,.85h-5.63v2.46c0,1.01,.24,1.02,1.92,1.02,.48,0,.9-.03,1.33-.06,.42-.03,.8-.08,1.2-.08,.54,0,.86,.27,.86,.83s-.19,.8-.9,.9c-.62,.08-1.12,.1-1.73,.1h-.56c-.85,0-2.11,0-2.86-.3-.96-.4-1.07-1.18-1.07-2.46v-2.4h-4.56c-.54,0-.86-.32-.86-.86s.34-.85,.86-.85h4.56v-2.4h-2.61c-.53,0-.88-.32-.88-.85s.37-.85,.88-.85h7.46c.53,0,.88,.34,.88,.86s-.37,.83-.88,.83h-3.04v2.4Z"/>
  <path class="b" d="M141.18,9.14c.49,0,.85,.37,.85,.91s-.36,.93-.85,.93h-10.34c-.49,0-.85-.37-.85-.93,0-.59,.35-.9,.85-.91h10.34Z"/>
  <path class="b" d="M152.53,9.42c.58,.4,.96,.67,.96,1.23,0,.51-.4,.99-.93,.99-.29,0-.66-.22-1.06-.54-.8-.64-1.65-1.18-2.53-1.68v6.72c0,.58-.37,.9-.94,.9-.54,0-.93-.27-.93-.9V3.98c0-.61,.37-.9,.94-.9s.93,.32,.93,.9v3.34c1.23,.61,2.42,1.3,3.55,2.1Zm-.35-5.26c.27,0,.62,.4,1.04,.86,.34,.38,.74,.9,.74,1.17,0,.3-.29,.56-.59,.56-.19,0-.37-.19-.5-.37-.3-.42-.62-.78-.99-1.17-.22-.24-.29-.37-.29-.51,0-.3,.3-.54,.59-.54Zm1.49-1.04c.35,0,.66,.45,1.06,.9,.3,.35,.72,.83,.72,1.14s-.29,.56-.59,.56c-.24,0-.37-.18-.66-.56-.32-.42-.62-.74-.94-1.09-.11-.13-.18-.26-.18-.4,0-.32,.3-.54,.59-.54Z"/>
</svg>