<?xml version="1.0" encoding="UTF-8"?>
<svg id="a" xmlns="http://www.w3.org/2000/svg" viewBox="0 0 240 96.48">
  <g>
    <g>
      <path d="M75.82,26.36c0-2.2,.4-4.3,1.2-6.2,.8-1.9,1.9-3.6,3.4-5,1.4-1.4,3.2-2.5,5.2-3.4,2-.8,4.2-1.2,6.7-1.2s4.6,.4,6.6,1.2c2,.8,3.8,1.9,5.2,3.4,1.5,1.4,2.6,3.1,3.4,5,.8,1.9,1.2,4,1.2,6.2s-.4,4.3-1.2,6.2c-.8,1.9-2,3.6-3.4,5-1.5,1.4-3.2,2.5-5.2,3.3s-4.2,1.2-6.6,1.2-4.6-.4-6.7-1.2c-2-.8-3.8-1.9-5.2-3.3-1.4-1.4-2.6-3.1-3.4-5s-1.2-4-1.2-6.2Zm8.1,0c0,1.2,.2,2.3,.7,3.3s1.1,1.9,1.8,2.6c.8,.7,1.7,1.3,2.7,1.7,1,.4,2.1,.6,3.2,.6s2.2-.2,3.2-.6,1.9-1,2.7-1.7,1.4-1.6,1.8-2.6,.7-2.1,.7-3.3-.2-2.3-.7-3.3c-.4-1-1.1-1.9-1.8-2.6s-1.7-1.3-2.7-1.7-2.1-.6-3.2-.6-2.2,.2-3.2,.6c-1,.4-1.9,1-2.7,1.7-.8,.7-1.4,1.6-1.8,2.6-.5,1-.7,2.1-.7,3.3Z"/>
      <path d="M92.22,10.66c2.5-.2,5.4,.7,8.3-.2,3.1-.9,5.4-3.6,6-6.9,1.2,8.7-5,13.2-12.7,12.6l-1.8-5.5h.2Z"/>
    </g>
    <g>
      <path d="M128.42,26.36c0-2.2,.4-4.3,1.2-6.2,.8-1.9,1.9-3.6,3.4-5,1.4-1.4,3.2-2.5,5.2-3.4,2-.8,4.2-1.2,6.7-1.2s4.6,.4,6.6,1.2c2,.8,3.8,1.9,5.2,3.4,1.5,1.4,2.6,3.1,3.4,5s1.2,4,1.2,6.2-.4,4.3-1.2,6.2c-.8,1.9-2,3.6-3.4,5s-3.2,2.5-5.2,3.3-4.2,1.2-6.6,1.2-4.6-.4-6.7-1.2c-2-.8-3.8-1.9-5.2-3.3-1.4-1.4-2.6-3.1-3.4-5s-1.2-4-1.2-6.2Zm8.1,0c0,1.2,.2,2.3,.7,3.3s1.1,1.9,1.8,2.6c.8,.7,1.7,1.3,2.7,1.7,1,.4,2.1,.6,3.2,.6s2.2-.2,3.2-.6,1.9-1,2.7-1.7,1.4-1.6,1.8-2.6,.7-2.1,.7-3.3-.2-2.3-.7-3.3-1.1-1.9-1.8-2.6-1.7-1.3-2.7-1.7-2.1-.6-3.2-.6-2.2,.2-3.2,.6c-1,.4-1.9,1-2.7,1.7-.8,.7-1.4,1.6-1.8,2.6-.5,1-.7,2.1-.7,3.3h0Z"/>
      <path d="M144.82,10.66c2.5-.2,5.5,.7,8.3-.2,3.1-.9,5.4-3.6,6-6.9,1.2,8.7-5,13.2-12.7,12.6l-1.8-5.5h.2Z"/>
    </g>
    <polygon points="118.32 31.46 106.62 41.36 129.92 41.36 118.32 31.46"/>
    <circle cx="92.72" cy="26.16" r="4"/>
    <circle cx="144.62" cy="26.36" r="4"/>
  </g>
  <g>
    <path d="M9.13,73.39c0-1.95,.36-3.76,1.08-5.44,.72-1.68,1.71-3.14,2.99-4.39,1.27-1.25,2.8-2.23,4.57-2.93,1.77-.71,3.72-1.06,5.85-1.06s4.05,.35,5.83,1.06c1.78,.71,3.32,1.68,4.6,2.93,1.29,1.25,2.29,2.71,3,4.39s1.08,3.49,1.08,5.44-.36,3.76-1.08,5.43c-.72,1.68-1.72,3.14-3,4.39s-2.82,2.23-4.6,2.93c-1.78,.71-3.73,1.06-5.83,1.06s-4.08-.35-5.85-1.06-3.29-1.68-4.57-2.93-2.27-2.71-2.99-4.39c-.72-1.68-1.08-3.49-1.08-5.43Zm7.12,0c0,1.04,.2,2,.59,2.88,.39,.88,.93,1.64,1.6,2.29s1.45,1.15,2.34,1.51c.89,.36,1.83,.54,2.83,.54s1.94-.18,2.83-.54c.89-.36,1.68-.86,2.36-1.51,.68-.65,1.22-1.41,1.62-2.29,.39-.88,.59-1.84,.59-2.88s-.2-2-.59-2.88c-.39-.88-.93-1.64-1.62-2.29-.68-.65-1.47-1.15-2.36-1.51-.89-.36-1.84-.54-2.83-.54s-1.94,.18-2.83,.54c-.89,.36-1.67,.86-2.34,1.51s-1.2,1.41-1.6,2.29-.59,1.84-.59,2.88Z"/>
    <path d="M42.26,86.48v-26.19h6.81l12.57,16.01v-16.01h6.77v26.19h-6.77l-12.57-16.01v16.01h-6.81Z"/>
    <path d="M72.59,73.39c0-1.95,.36-3.76,1.08-5.44,.72-1.68,1.71-3.14,2.99-4.39,1.27-1.25,2.8-2.23,4.57-2.93,1.77-.71,3.72-1.06,5.85-1.06s4.05,.35,5.83,1.06c1.78,.71,3.32,1.68,4.6,2.93,1.29,1.25,2.29,2.71,3,4.39s1.08,3.49,1.08,5.44-.36,3.76-1.08,5.43c-.72,1.68-1.72,3.14-3,4.39s-2.82,2.23-4.6,2.93c-1.78,.71-3.73,1.06-5.83,1.06s-4.08-.35-5.85-1.06-3.29-1.68-4.57-2.93-2.27-2.71-2.99-4.39c-.72-1.68-1.08-3.49-1.08-5.43Zm7.12,0c0,1.04,.2,2,.59,2.88,.39,.88,.93,1.64,1.6,2.29s1.45,1.15,2.34,1.51c.89,.36,1.83,.54,2.83,.54s1.94-.18,2.83-.54c.89-.36,1.68-.86,2.36-1.51,.68-.65,1.22-1.41,1.62-2.29,.39-.88,.59-1.84,.59-2.88s-.2-2-.59-2.88c-.39-.88-.93-1.64-1.62-2.29-.68-.65-1.47-1.15-2.36-1.51-.89-.36-1.84-.54-2.83-.54s-1.94,.18-2.83,.54c-.89,.36-1.67,.86-2.34,1.51s-1.2,1.41-1.6,2.29-.59,1.84-.59,2.88Z"/>
    <path d="M115.36,66.06v20.42h-6.81v-20.42h-5.59v-5.77h17.99v5.77h-5.59Z"/>
    <path d="M138.65,66.06h-8.09v4.38h7.64v5.76h-7.64v4.51h8.09v5.77h-14.9v-26.19h14.9v5.77Z"/>
    <path d="M143.09,83.15c0-.56,.1-1.08,.31-1.58s.5-.93,.87-1.3,.8-.66,1.3-.87c.5-.21,1.02-.31,1.58-.31s1.08,.1,1.58,.31c.5,.21,.93,.5,1.3,.87,.37,.37,.66,.8,.87,1.3,.21,.5,.31,1.02,.31,1.58s-.1,1.08-.31,1.58c-.21,.5-.5,.93-.87,1.3-.37,.37-.81,.66-1.3,.87-.5,.21-1.02,.31-1.58,.31s-1.08-.1-1.58-.31c-.5-.21-.93-.5-1.3-.87-.37-.37-.66-.8-.87-1.3s-.31-1.02-.31-1.58Z"/>
    <path d="M172.65,81.93h-9.72l-1.56,4.55h-7.26l9.97-26.19h7.43l9.97,26.19h-7.26l-1.56-4.55Zm-1.81-5.17l-3.06-8.72-3.06,8.72h6.11Z"/>
    <path d="M191.06,86.48h-6.81v-26.19h10.84c2.94,0,5.19,.76,6.75,2.29,1.56,1.53,2.34,3.68,2.34,6.46s-.78,4.93-2.34,6.46c-1.56,1.53-3.81,2.29-6.75,2.29h-4.03v8.68Zm0-14.17h2.26c2.5,0,3.75-1.09,3.75-3.26s-1.25-3.26-3.75-3.26h-2.26v6.53Z"/>
    <path d="M214.88,86.48h-6.81v-26.19h10.84c2.94,0,5.19,.76,6.75,2.29,1.56,1.53,2.34,3.68,2.34,6.46s-.78,4.93-2.34,6.46c-1.56,1.53-3.81,2.29-6.75,2.29h-4.03v8.68Zm0-14.17h2.26c2.5,0,3.75-1.09,3.75-3.26s-1.25-3.26-3.75-3.26h-2.26v6.53Z"/>
  </g>
</svg>