<?xml version="1.0" encoding="UTF-8"?>
<svg id="a" xmlns="http://www.w3.org/2000/svg" viewBox="0 0 93.19 20">
  <defs>
    <style>
      .b {
        fill: #fff;
      }
    </style>
  </defs>
  <path class="b" d="M4.67,6.9c.4,0,1.07,.45,1.65,.85,.35,.26,.94,.56,.94,1.07,0,.42-.35,.89-.8,.89-.22,0-.43-.11-.61-.24-.38-.27-.77-.56-1.17-.81-.32-.21-.82-.43-.82-.88s.35-.88,.8-.88Zm3.17,5.02c0,.74-1.14,2.77-1.54,3.49-.3,.54-.61,1.14-.99,1.63-.14,.18-.34,.3-.56,.3-.45,0-.88-.4-.88-.83,0-.4,.53-1.14,.75-1.5,.64-1.04,1.18-2.14,1.66-3.26,.13-.3,.32-.56,.69-.56,.4,0,.86,.3,.86,.73ZM5.19,2.78c.16,0,.4,.13,.69,.29s.53,.32,.86,.54c.19,.13,.32,.21,.62,.42,.22,.14,.42,.4,.42,.66,0,.43-.37,.91-.83,.91-.22,0-.42-.13-.61-.26-.38-.27-.78-.54-1.18-.81-.3-.21-.78-.43-.78-.85s.37-.9,.82-.9Zm6.67,12.49c0,.26-.16,.45-.37,.61-.35,.26-.74,.48-1.12,.7-.56,.32-1.58,.9-2.21,.9-.46,0-.75-.42-.75-.85s.29-.61,.67-.72c.85-.26,1.66-.67,2.43-1.15,.18-.11,.4-.24,.62-.24,.4,0,.72,.35,.72,.75ZM16.81,3.83c1.3,0,1.65,.37,1.65,1.66v.96c0,.54-.26,.85-.82,.85-.51,0-.77-.32-.77-.83v-.77c0-.29-.16-.45-.45-.45h-6.48c-.29,0-.45,.18-.45,.45v.78c0,.54-.26,.82-.8,.82s-.74-.34-.74-.83v-.98c0-1.29,.34-1.66,1.65-1.66h2.74v-.66c0-.53,.4-.66,.86-.66,.42,0,.77,.21,.77,.66v.66h2.83Zm-4.4,3.63h-2.1c-.38,0-.67-.21-.67-.62s.29-.62,.67-.62h5.66c.42,0,.7,.16,.7,.62s-.29,.62-.7,.62h-2.06v.95h2.64c1.15,0,1.62,.48,1.62,1.61v2.66c0,1.15-.46,1.62-1.62,1.62h-6.66c-1.15,0-1.62-.46-1.62-1.62v-2.66c0-1.15,.46-1.61,1.62-1.61h2.51v-.95Zm0,3.3v-1.15h-2.11c-.29,0-.45,.18-.45,.46v.69h2.56Zm-2.56,1.86c0,.27,.16,.45,.45,.45h2.11v-1.23h-2.56v.79Zm6.74-2.54c0-.29-.18-.46-.45-.46h-2.22v1.15h2.67v-.69Zm-2.67,1.76v1.23h2.22c.27,0,.45-.18,.45-.45v-.79h-2.67Zm2.3,3.23c.66,.38,1.31,.69,2.06,.94,.26,.08,.48,.29,.48,.59,0,.45-.32,.9-.78,.9-.56,0-1.49-.54-2.18-.94-.4-.24-1.41-.72-1.41-1.25,0-.37,.3-.77,.7-.77,.35,0,.82,.35,1.12,.53Z"/>
  <path class="b" d="M28.44,2.95c1.15,0,1.62,.46,1.62,1.61v3.76c0,1.21-.3,1.66-1.57,1.66h-1.12c-.62,0-1.12-.02-1.12-.8,0-.61,.42-.64,.91-.64h.72c.38,0,.58-.1,.58-.5v-3.22c0-.32-.19-.51-.51-.51h-4.1c-.46,0-.74-.19-.74-.69s.27-.67,.74-.69h4.59Zm-4.05,4.93c.62-.18,1.26-.46,1.86-.77,.29-.14,.66-.38,1.01-.38s.58,.34,.58,.67c0,.38-.34,.58-.64,.75-.58,.34-2.88,1.42-3.46,1.42-.4,0-.61-.37-.61-.73,0-.61,.67-.8,1.26-.96Zm.13-3.46c.37,0,1.23,.53,1.57,.74,.27,.18,.59,.37,.59,.74,0,.4-.35,.77-.75,.77-.1,0-.24-.06-.35-.13-.11-.06-1.25-.77-1.47-.94-.24-.18-.27-.22-.27-.42,0-.38,.32-.75,.69-.75Zm5.41,5.47c.14-.26,.35-.48,.75-.48,.35,0,.8,.11,.8,.54,0,.21-.13,.42-.19,.61h3.57c1.14,0,1.6,.46,1.6,1.61v3.44c0,1.15-.46,1.6-1.6,1.6h-8.51c-1.15,0-1.62-.45-1.62-1.6v-3.44c0-1.15,.46-1.62,1.62-1.62h3.3c.1-.24,.18-.46,.29-.67Zm4.86,2.42c0-.29-.16-.45-.45-.45h-7.49c-.29,0-.45,.16-.45,.45v.93h8.38v-.93Zm-8.38,2.19v.96c0,.29,.16,.45,.45,.45h7.49c.29,0,.45-.16,.45-.45v-.96h-8.38ZM35.92,2.95c1.15,0,1.62,.46,1.62,1.61v3.76c0,.56-.03,1.26-.64,1.52-.3,.13-.83,.14-1.33,.14h-.86c-.51,0-.86-.21-.86-.77,0-.62,.35-.67,.86-.67h.72c.38,0,.53-.14,.53-.53v-3.19c0-.32-.19-.51-.51-.51h-4.08c-.45,0-.74-.19-.74-.69s.29-.67,.74-.69h4.56Zm-.45,4.24c0,.43-.38,.64-.9,.91-.67,.37-2.26,1.2-2.85,1.2-.42,0-.62-.45-.62-.8,0-.56,.67-.7,1.09-.86,.61-.24,1.22-.53,1.79-.83,.27-.13,.58-.34,.9-.34,.4,0,.59,.37,.59,.72Zm-2.5-.66c-.48-.27-1.02-.59-1.5-.9-.3-.19-.34-.3-.34-.5,0-.37,.34-.74,.7-.74,.4,0,1.39,.58,1.74,.8,.26,.16,.53,.35,.53,.67,0,.38-.35,.8-.74,.8-.1,0-.19-.03-.4-.14Z"/>
  <path class="b" d="M49.94,8.83h5.63c.54,0,.86,.32,.86,.86s-.34,.85-.86,.85h-5.63v2.46c0,1.01,.24,1.02,1.92,1.02,.48,0,.9-.03,1.33-.06,.42-.03,.8-.08,1.2-.08,.54,0,.86,.27,.86,.83s-.19,.8-.9,.9c-.62,.08-1.12,.1-1.73,.1h-.56c-.85,0-2.11,0-2.86-.3-.96-.4-1.07-1.18-1.07-2.46v-2.4h-4.56c-.54,0-.86-.32-.86-.86s.34-.85,.86-.85h4.56v-2.4h-2.61c-.53,0-.88-.32-.88-.85s.37-.85,.88-.85h7.46c.53,0,.88,.34,.88,.86s-.37,.83-.88,.83h-3.04v2.4Z"/>
  <path class="b" d="M72.91,9.83c.49,0,.85,.33,.85,.82s-.36,.83-.85,.83h-10.34c-.49,0-.85-.33-.85-.83,0-.53,.35-.81,.85-.82h10.34Z"/>
  <path class="b" d="M86.41,9.42c.58,.4,.96,.67,.96,1.23,0,.51-.4,.99-.93,.99-.29,0-.66-.22-1.06-.54-.8-.64-1.65-1.18-2.53-1.68v6.72c0,.58-.37,.9-.94,.9-.54,0-.93-.27-.93-.9V3.98c0-.61,.37-.9,.94-.9s.93,.32,.93,.9v3.34c1.23,.61,2.42,1.3,3.55,2.1Zm-.35-5.26c.27,0,.62,.4,1.04,.86,.34,.38,.74,.9,.74,1.17,0,.3-.29,.56-.59,.56-.19,0-.37-.19-.5-.37-.3-.42-.62-.78-.99-1.17-.22-.24-.29-.37-.29-.51,0-.3,.3-.54,.59-.54Zm1.49-1.04c.35,0,.66,.45,1.06,.9,.3,.35,.72,.83,.72,1.14s-.29,.56-.59,.56c-.24,0-.37-.18-.66-.56-.32-.42-.62-.74-.94-1.09-.11-.13-.18-.26-.18-.4,0-.32,.3-.54,.59-.54Z"/>
</svg>