<?xml version="1.0" encoding="UTF-8"?>
<svg id="a" xmlns="http://www.w3.org/2000/svg" viewBox="0 0 140 20">
  <defs>
    <style>
      .b {
        fill: #fff;
      }
    </style>
  </defs>
  <path class="b" d="M14.97,3.06c1.25,0,1.58,.34,1.58,1.57v1.22c0,1.25-.34,1.58-1.57,1.58h-2.58c-.19,0-.3,.13-.34,.3-.1,.54-.11,.74-.11,.91,0,.21,.18,.27,.37,.27h2.66c1.07,0,1.66,.42,1.66,1.53,0,1.44-.11,4.4-.53,5.71-.38,1.15-1.14,1.26-2.05,1.26h-.94c-.58,0-1.17-.03-1.17-.8,0-.58,.4-.72,.88-.72,.42,0,.83,.05,1.25,.05,.58,0,.67-.74,.74-1.3,.19-1.26,.26-2.56,.26-3.84,0-.3-.14-.48-.46-.48h-2.9c-.7,0-1.46-.22-1.46-1.09,0-.48,.11-1.18,.18-1.7,.11-1.07,.35-1.44,1.5-1.44h2.51c.27,0,.43-.18,.43-.45v-.74c0-.27-.16-.45-.43-.45h-3.95c-.46,0-.74-.21-.74-.7s.27-.7,.74-.72h4.46Zm-.5,10.88c0,.21-.1,.4-.27,.53-.48,.32-.98,.53-1.55,.8-.46,.22-1.74,.85-2.21,.85-.43,0-.67-.48-.67-.86s.26-.56,.58-.69c.43-.19,.9-.37,1.34-.56,.51-.22,1.02-.43,1.57-.69,.18-.08,.45-.19,.58-.19,.42,0,.64,.43,.64,.82Zm-1.9-2.72c.62,.54,.94,.82,.94,1.12,0,.45-.45,.85-.88,.85-.27,0-.4-.14-.8-.54-.26-.24-.51-.48-.8-.69-.35-.24-.56-.38-.56-.69,0-.43,.43-.8,.85-.8,.24,0,.64,.22,1.25,.75Zm5.54,3.15c.74-.29,1.92-.77,2.61-1.14,.19-.11,.42-.24,.66-.24,.4,0,.64,.4,.64,.77,0,.16-.03,.34-.16,.45-.35,.32-1.34,.77-1.79,.98-.48,.24-1.82,.91-2.3,.91-.42,0-.64-.48-.64-.83,0-.53,.38-.67,.99-.9Zm1.22-4.03c-.77,0-1.54-.16-1.54-1.1,0-.5,.13-1.14,.18-1.67,.13-1.09,.29-1.45,1.49-1.45h2.66c.27,0,.43-.18,.43-.45v-.74c0-.27-.16-.45-.43-.45h-4.16c-.46,0-.74-.21-.74-.7s.27-.72,.74-.72h4.67c1.23,0,1.57,.34,1.57,1.57v1.22c0,1.25-.34,1.58-1.57,1.58h-2.59c-.21,0-.34,.06-.37,.29-.05,.29-.13,.61-.13,.9,0,.21,.14,.3,.34,.3h2.91c1.06,0,1.58,.5,1.58,1.55,0,1.6-.14,4.14-.54,5.67-.3,1.15-.94,1.3-2.03,1.3h-.83c-.34,0-.66,0-.82-.06-.29-.13-.42-.48-.42-.78,0-.56,.43-.7,.91-.7,.34,0,.69,.03,1.04,.03,.22,0,.45-.06,.56-.29,.22-.43,.26-1.2,.3-1.7,.11-.98,.22-2.18,.22-3.15,0-.3-.19-.43-.48-.43h-2.96Zm-.69,.11c.37,0,1.1,.53,1.57,.86,.38,.29,.7,.53,.7,.9,0,.46-.45,.85-.9,.85-.3,0-.53-.21-.8-.45-.35-.3-.72-.59-1.1-.85-.19-.13-.34-.29-.34-.53,0-.45,.45-.78,.86-.78Z"/>
  <path class="b" d="M29.52,15.65c.38-.42,.77-1.3,1.07-1.98,.11-.29,.34-.48,.66-.48,.42,0,.9,.26,.9,.72,0,.64-.64,1.76-.98,2.32-.21,.37-.45,.77-.77,1.07-.13,.13-.3,.18-.5,.18-.45,0-.96-.34-.96-.83,0-.29,.32-.7,.58-.99Zm5.6-12.46c0-.62,.38-.75,.94-.75,.45,0,.83,.19,.83,.69v.82h6.06c.56,0,.82,.26,.82,.83,0,.53-.3,.77-.82,.77h-6.06v1.42h3.74c1.28,0,1.78,.51,1.78,1.78v2.13c0,1.28-.5,1.79-1.78,1.79h-8.38c-1.28,0-1.78-.51-1.78-1.79v-2.13c0-1.26,.5-1.78,1.78-1.78h2.86V3.18Zm-2.26,5.3c-.4,0-.62,.22-.62,.62v1.39c0,.4,.22,.62,.62,.62h7.17c.4,0,.62-.22,.62-.62v-1.39c0-.43-.21-.61-.62-.62h-7.17Zm1.47,4.94c.66,0,.8,.32,.85,.9,.08,.75,.13,1.5,.13,2.26,0,.59-.3,.88-.9,.88s-.86-.29-.86-.88c0-.32,.02-.62,.02-.94,0-.48-.03-.96-.03-1.42,0-.53,.29-.78,.8-.78Zm4.53,.98c.21,.51,.67,1.7,.67,2.21s-.48,.78-.96,.78c-.74,0-.77-.59-.9-1.15-.1-.46-.24-.93-.4-1.38-.11-.29-.27-.59-.27-.91,0-.43,.53-.62,.9-.62,.54,0,.7,.38,.96,1.07Zm2.59-1.28c.18,0,.38,.06,.5,.19,.27,.3,.53,.66,.75,.99,.32,.5,1.22,1.73,1.22,2.29,0,.51-.54,.83-1.02,.83-.54,0-.74-.59-.94-.99-.27-.53-.58-1.04-.91-1.54-.19-.3-.5-.66-.5-1.02,0-.48,.5-.75,.91-.75Z"/>
  <path class="b" d="M55.15,5.52h-5.81c-.51,0-.83-.24-.83-.78s.32-.78,.83-.78h5.81v-.77c0-.58,.37-.7,.88-.7s.82,.16,.82,.7v.77h5.81c.51,0,.83,.24,.83,.78s-.32,.78-.83,.78h-5.81v1.36h3.25c1.28,0,1.78,.51,1.78,1.79v1.36c0,1.28-.5,1.79-1.78,1.79h-1.5v3.28c0,.56,.27,.62,.85,.62h.96c.86,0,1.09-.03,1.17-.53,.03-.19,.05-.4,.08-1.07,.03-.58,.24-.82,.83-.82s.85,.3,.85,.88c0,.8-.1,2.3-.66,2.78-.43,.37-.77,.4-2.4,.4h-.94c-.72,0-1.55-.02-1.89-.22-.51-.32-.58-1.02-.58-1.61v-3.71h-2.16c-.06,1.71-.42,3.19-1.81,4.32-.82,.66-2.29,1.42-3.36,1.42-.54,0-.88-.48-.88-.99,0-.48,.27-.66,.69-.77,1.17-.3,2.5-.75,3.15-1.86,.38-.64,.46-1.41,.5-2.13h-1.06c-1.28,0-1.79-.51-1.79-1.79v-1.36c0-1.28,.51-1.79,1.79-1.79h3.22v-1.36Zm-2.7,2.72c-.38,0-.62,.24-.62,.62v.96c0,.4,.24,.64,.62,.64h7.12c.4,0,.64-.24,.64-.64v-.96c0-.42-.21-.62-.64-.62h-7.12Z"/>
  <path class="b" d="M70.23,12.27c-.03,1.14-.13,2.29-.4,3.41-.1,.46-.21,.98-.4,1.41-.13,.26-.35,.38-.62,.38-.46,0-.9-.3-.9-.8,0-.29,.29-1.3,.42-1.79,.38-1.39,.42-3.26,.42-4.72V4.54c0-1.31,.35-1.66,1.65-1.66h1.63c1.3,0,1.65,.37,1.65,1.66V15.82c0,1.58-.7,1.6-2.16,1.6-.64,0-1.14-.16-1.14-.9,0-.66,.48-.75,1.02-.75h.24c.46,0,.56-.18,.56-.62v-2.88h-1.97Zm1.97-5.41v-1.95c0-.29-.16-.46-.45-.46h-1.04c-.29,0-.45,.18-.45,.46v1.95h1.94Zm-1.94,1.46v2.46h1.94v-2.46h-1.94Zm12.3,7.55c.21,.14,.4,.35,.4,.62,0,.45-.35,.94-.83,.94-.51,0-1.63-.9-2.3-1.6-.59,.69-1.71,1.63-2.14,1.63-.46,0-.85-.45-.85-.91,0-.35,.21-.54,.48-.74,.54-.35,1.02-.77,1.49-1.22-.64-.91-1.14-1.9-1.49-2.96-.11-.35-.14-.56-.14-.64,0-.42,.38-.69,.78-.69s.59,.38,.72,.72c.32,.8,.61,1.6,1.1,2.3,.38-.66,.96-2.02,.96-2.78,0-.3-.21-.4-.48-.4h-3.84v6.56c0,.56-.27,.83-.85,.83-.54,0-.78-.32-.78-.83V4.72c0-1.28,.51-1.78,1.78-1.78h4.29c.96,0,1.57,.4,1.57,1.42,0,.66-.1,2.56-.5,3.04-.51,.59-1.31,.59-2.03,.59-1.36,0-1.58-.11-1.58-.75,0-.48,.3-.66,.74-.66,.24,0,.5,.02,.77,.02,.4,0,.62-.05,.72-.13,.24-.21,.27-1.2,.27-1.57,0-.29-.19-.43-.48-.43h-3.28c-.4,0-.62,.22-.62,.62v3.63h4.34c.88,0,1.6,.3,1.6,1.3,0,1.52-.72,3.26-1.54,4.54,.51,.51,1.14,.88,1.74,1.3Z"/>
  <path class="b" d="M94.84,8.83h5.63c.54,0,.86,.32,.86,.86s-.34,.85-.86,.85h-5.63v2.46c0,1.01,.24,1.02,1.92,1.02,.48,0,.9-.03,1.33-.06,.42-.03,.8-.08,1.2-.08,.54,0,.86,.27,.86,.83s-.19,.8-.9,.9c-.62,.08-1.12,.1-1.73,.1h-.56c-.85,0-2.11,0-2.86-.3-.96-.4-1.07-1.18-1.07-2.46v-2.4h-4.56c-.54,0-.86-.32-.86-.86s.34-.85,.86-.85h4.56v-2.4h-2.61c-.53,0-.88-.32-.88-.85s.37-.85,.88-.85h7.46c.53,0,.88,.34,.88,.86s-.37,.83-.88,.83h-3.04v2.4Z"/>
  <path class="b" d="M117.81,9.14c.49,0,.85,.37,.85,.91s-.36,.93-.85,.93h-10.34c-.49,0-.85-.37-.85-.93,0-.59,.35-.9,.85-.91h10.34Z"/>
  <path class="b" d="M131.31,9.42c.58,.4,.96,.67,.96,1.23,0,.51-.4,.99-.93,.99-.29,0-.66-.22-1.06-.54-.8-.64-1.65-1.18-2.53-1.68v6.72c0,.58-.37,.9-.94,.9-.54,0-.93-.27-.93-.9V3.98c0-.61,.37-.9,.94-.9s.93,.32,.93,.9v3.34c1.23,.61,2.42,1.3,3.55,2.1Zm-.35-5.26c.27,0,.62,.4,1.04,.86,.34,.38,.74,.9,.74,1.17,0,.3-.29,.56-.59,.56-.19,0-.37-.19-.5-.37-.3-.42-.62-.78-.99-1.17-.22-.24-.29-.37-.29-.51,0-.3,.3-.54,.59-.54Zm1.49-1.04c.35,0,.66,.45,1.06,.9,.3,.35,.72,.83,.72,1.14s-.29,.56-.59,.56c-.24,0-.37-.18-.66-.56-.32-.42-.62-.74-.94-1.09-.11-.13-.18-.26-.18-.4,0-.32,.3-.54,.59-.54Z"/>
</svg>